<svg width="24" height="24" viewBox="0 0 24 24" fill="none" xmlns="http://www.w3.org/2000/svg">
<path d="M3 9C3 7.89543 3.89543 7 5 7H6.26393C7.02148 7 7.714 6.572 8.05279 5.89443L8.44721 5.10557C8.786 4.428 9.47852 4 10.2361 4H13.7639C14.5215 4 15.214 4.428 15.5528 5.10557L15.9472 5.89443C16.286 6.572 16.9785 7 17.7361 7H19C20.1046 7 21 7.89543 21 9V18C21 19.1046 20.1046 20 19 20H5C3.89543 20 3 19.1046 3 18V9Z" stroke="black" stroke-linejoin="round"/>
<circle cx="12" cy="13" r="4" stroke="black" stroke-linejoin="round"/>
</svg>
