<svg width="24" height="24" viewBox="0 0 24 24" fill="none" xmlns="http://www.w3.org/2000/svg">
<path d="M20.5007 18L20.9005 18.3003C21.0143 18.1488 21.0327 17.946 20.948 17.7766C20.8634 17.6071 20.6902 17.5 20.5007 17.5V18ZM15.662 2.51022L15.9469 2.9211C16.1025 2.8132 16.1838 2.62668 16.157 2.43926C16.1301 2.25183 15.9997 2.09567 15.82 2.03584L15.662 2.51022ZM20.5007 17.5C20.5007 17.5 20.5007 17.5 20.5007 17.5C20.5007 17.5 20.5007 17.5 20.5007 17.5H20.5007C20.5007 17.5 20.5007 17.5 20.5007 17.5C20.5007 17.5 20.5007 17.5 20.5007 17.5H20.5007C20.5007 17.5 20.5007 17.5 20.5007 17.5C20.5007 17.5 20.5007 17.5 20.5007 17.5H20.5007C20.5007 17.5 20.5007 17.5 20.5007 17.5C20.5007 17.5 20.5007 17.5 20.5007 17.5H20.5007C20.5007 17.5 20.5007 17.5 20.5007 17.5C20.5007 17.5 20.5007 17.5 20.5007 17.5H20.5007C20.5007 17.5 20.5007 17.5 20.5007 17.5C20.5007 17.5 20.5007 17.5 20.5007 17.5H20.5007C20.5007 17.5 20.5007 17.5 20.5007 17.5C20.5007 17.5 20.5007 17.5 20.5007 17.5H20.5007C20.5007 17.5 20.5007 17.5 20.5007 17.5C20.5007 17.5 20.5007 17.5 20.5007 17.5H20.5007C20.5007 17.5 20.5007 17.5 20.5007 17.5C20.5007 17.5 20.5007 17.5 20.5007 17.5H20.5007C20.5007 17.5 20.5007 17.5 20.5007 17.5C20.5007 17.5 20.5007 17.5 20.5007 17.5H20.5007C20.5007 17.5 20.5007 17.5 20.5007 17.5C20.5007 17.5 20.5007 17.5 20.5007 17.5H20.5007C20.5007 17.5 20.5007 17.5 20.5007 17.5C20.5007 17.5 20.5007 17.5 20.5007 17.5C20.5007 17.5 20.5007 17.5 20.5007 17.5C20.5007 17.5 20.5007 17.5 20.5007 17.5H20.5007C20.5007 17.5 20.5007 17.5 20.5007 17.5C20.5007 17.5 20.5007 17.5 20.5007 17.5H20.5007C20.5007 17.5 20.5007 17.5 20.5006 17.5C20.5006 17.5 20.5006 17.5 20.5006 17.5H20.5006C20.5006 17.5 20.5006 17.5 20.5006 17.5C20.5006 17.5 20.5006 17.5 20.5006 17.5H20.5006C20.5006 17.5 20.5006 17.5 20.5006 17.5C20.5006 17.5 20.5006 17.5 20.5006 17.5H20.5006C20.5006 17.5 20.5006 17.5 20.5006 17.5C20.5006 17.5 20.5006 17.5 20.5006 17.5H20.5006C20.5006 17.5 20.5006 17.5 20.5006 17.5C20.5006 17.5 20.5006 17.5 20.5006 17.5H20.5006C20.5006 17.5 20.5006 17.5 20.5006 17.5C20.5006 17.5 20.5006 17.5 20.5006 17.5H20.5006C20.5006 17.5 20.5006 17.5 20.5006 17.5C20.5006 17.5 20.5006 17.5 20.5006 17.5H20.5006C20.5006 17.5 20.5006 17.5 20.5006 17.5C20.5006 17.5 20.5006 17.5 20.5006 17.5H20.5006C20.5006 17.5 20.5006 17.5 20.5006 17.5C20.5006 17.5 20.5006 17.5 20.5006 17.5H20.5006C20.5006 17.5 20.5006 17.5 20.5006 17.5C20.5006 17.5 20.5006 17.5 20.5006 17.5H20.5006C20.5006 17.5 20.5006 17.5 20.5006 17.5C20.5006 17.5 20.5006 17.5 20.5006 17.5H20.5006C20.5006 17.5 20.5006 17.5 20.5006 17.5C20.5006 17.5 20.5006 17.5 20.5006 17.5H20.5006C20.5006 17.5 20.5006 17.5 20.5006 17.5H20.5006C20.5006 17.5 20.5006 17.5 20.5006 17.5C20.5006 17.5 20.5006 17.5 20.5006 17.5H20.5006C20.5006 17.5 20.5006 17.5 20.5006 17.5C20.5006 17.5 20.5006 17.5 20.5006 17.5H20.5006C20.5006 17.5 20.5006 17.5 20.5006 17.5C20.5006 17.5 20.5006 17.5 20.5006 17.5H20.5006C20.5006 17.5 20.5006 17.5 20.5006 17.5C20.5006 17.5 20.5006 17.5 20.5006 17.5H20.5006C20.5006 17.5 20.5006 17.5 20.5006 17.5C20.5006 17.5 20.5006 17.5 20.5006 17.5H20.5005C20.5005 17.5 20.5005 17.5 20.5005 17.5C20.5005 17.5 20.5005 17.5 20.5005 17.5H20.5005C20.5005 17.5 20.5005 17.5 20.5005 17.5C20.5005 17.5 20.5005 17.5 20.5005 17.5H20.5005C20.5005 17.5 20.5005 17.5 20.5005 17.5C20.5005 17.5 20.5005 17.5 20.5005 17.5H20.5005C20.5005 17.5 20.5005 17.5 20.5005 17.5C20.5005 17.5 20.5005 17.5 20.5005 17.5H20.5005C20.5005 17.5 20.5005 17.5 20.5005 17.5C20.5005 17.5 20.5005 17.5 20.5005 17.5H20.5005C20.5005 17.5 20.5005 17.5 20.5005 17.5C20.5005 17.5 20.5005 17.5 20.5005 17.5H20.5005C20.5005 17.5 20.5005 17.5 20.5005 17.5C20.5005 17.5 20.5005 17.5 20.5005 17.5H20.5005C20.5005 17.5 20.5005 17.5 20.5005 17.5C20.5005 17.5 20.5005 17.5 20.5005 17.5H20.5005C20.5005 17.5 20.5005 17.5 20.5005 17.5C20.5005 17.5 20.5005 17.5 20.5005 17.5H20.5005C20.5005 17.5 20.5005 17.5 20.5005 17.5C20.5005 17.5 20.5005 17.5 20.5005 17.5H20.5005C20.5005 17.5 20.5005 17.5 20.5005 17.5C20.5005 17.5 20.5005 17.5 20.5005 17.5H20.5005C20.5005 17.5 20.5005 17.5 20.5005 17.5C20.5005 17.5 20.5005 17.5 20.5005 17.5C20.5005 17.5 20.5005 17.5 20.5005 17.5C20.5005 17.5 20.5005 17.5 20.5005 17.5H20.5005C20.5005 17.5 20.5005 17.5 20.5005 17.5C20.5005 17.5 20.5005 17.5 20.5005 17.5H20.5005C20.5005 17.5 20.5005 17.5 20.5005 17.5C20.5005 17.5 20.5005 17.5 20.5005 17.5H20.5005C20.5005 17.5 20.5005 17.5 20.5005 17.5C20.5005 17.5 20.5005 17.5 20.5005 17.5H20.5005C20.5005 17.5 20.5005 17.5 20.5005 17.5C20.5005 17.5 20.5005 17.5 20.5005 17.5H20.5005C20.5005 17.5 20.5005 17.5 20.5005 17.5C20.5005 17.5 20.5005 17.5 20.5005 17.5H20.5004C20.5004 17.5 20.5004 17.5 20.5004 17.5C20.5004 17.5 20.5004 17.5 20.5004 17.5H20.5004C20.5004 17.5 20.5004 17.5 20.5004 17.5C20.5004 17.5 20.5004 17.5 20.5004 17.5H20.5004C20.5004 17.5 20.5004 17.5 20.5004 17.5C20.5004 17.5 20.5004 17.5 20.5004 17.5H20.5004C20.5004 17.5 20.5004 17.5 20.5004 17.5C20.5004 17.5 20.5004 17.5 20.5004 17.5H20.5004C20.5004 17.5 20.5004 17.5 20.5004 17.5C20.5004 17.5 20.5004 17.5 20.5004 17.5H20.5004C20.5004 17.5 20.5004 17.5 20.5004 17.5C20.5004 17.5 20.5004 17.5 20.5004 17.5H20.5004C20.5004 17.5 20.5004 17.5 20.5004 17.5C20.5004 17.5 20.5004 17.5 20.5004 17.5H20.5004C20.5004 17.5 20.5004 17.5 20.5004 17.5C20.5004 17.5 20.5004 17.5 20.5004 17.5H20.5004C20.5004 17.5 20.5004 17.5 20.5004 17.5C20.5004 17.5 20.5004 17.5 20.5004 17.5H20.5004C20.5004 17.5 20.5004 17.5 20.5004 17.5C20.5004 17.5 20.5004 17.5 20.5004 17.5H20.5004C20.5004 17.5 20.5004 17.5 20.5004 17.5C20.5004 17.5 20.5004 17.5 20.5004 17.5H20.5004C20.5004 17.5 20.5004 17.5 20.5004 17.5C20.5004 17.5 20.5004 17.5 20.5004 17.5H20.5004C20.5004 17.5 20.5004 17.5 20.5004 17.5C20.5004 17.5 20.5004 17.5 20.5004 17.5H20.5004C20.5004 17.5 20.5004 17.5 20.5004 17.5C20.5004 17.5 20.5004 17.5 20.5004 17.5H20.5004C20.5004 17.5 20.5004 17.5 20.5004 17.5C20.5004 17.5 20.5004 17.5 20.5004 17.5C20.5004 17.5 20.5004 17.5 20.5004 17.5C20.5004 17.5 20.5004 17.5 20.5004 17.5H20.5004C20.5004 17.5 20.5004 17.5 20.5004 17.5C20.5004 17.5 20.5004 17.5 20.5004 17.5H20.5004C20.5004 17.5 20.5004 17.5 20.5004 17.5C20.5003 17.5 20.5003 17.5 20.5003 17.5H20.5003C20.5003 17.5 20.5003 17.5 20.5003 17.5C20.5003 17.5 20.5003 17.5 20.5003 17.5H20.5003C20.5003 17.5 20.5003 17.5 20.5003 17.5C20.5003 17.5 20.5003 17.5 20.5003 17.5H20.5003C20.5003 17.5 20.5003 17.5 20.5003 17.5C20.5003 17.5 20.5003 17.5 20.5003 17.5H20.5003C20.5003 17.5 20.5003 17.5 20.5003 17.5C20.5003 17.5 20.5003 17.5 20.5003 17.5H20.5003C20.5003 17.5 20.5003 17.5 20.5003 17.5C20.5003 17.5 20.5003 17.5 20.5003 17.5H20.5003C20.5003 17.5 20.5003 17.5 20.5003 17.5C20.5003 17.5 20.5003 17.5 20.5003 17.5H20.5003C20.5003 17.5 20.5003 17.5 20.5003 17.5C20.5003 17.5 20.5003 17.5 20.5003 17.5H20.5003C20.5003 17.5 20.5003 17.5 20.5003 17.5C20.5003 17.5 20.5003 17.5 20.5003 17.5H20.5003C20.5003 17.5 20.5003 17.5 20.5003 17.5C20.5003 17.5 20.5003 17.5 20.5003 17.5H20.5003C20.5003 17.5 20.5003 17.5 20.5003 17.5C20.5003 17.5 20.5003 17.5 20.5003 17.5H20.5003C20.5003 17.5 20.5003 17.5 20.5003 17.5C20.5003 17.5 20.5003 17.5 20.5003 17.5H20.5003C20.5003 17.5 20.5003 17.5 20.5003 17.5C20.5003 17.5 20.5003 17.5 20.5003 17.5H20.5003C20.5003 17.5 20.5003 17.5 20.5003 17.5C20.5003 17.5 20.5003 17.5 20.5003 17.5H20.5003C20.5003 17.5 20.5003 17.5 20.5003 17.5C20.5003 17.5 20.5003 17.5 20.5003 17.5H20.5003C20.5003 17.5 20.5003 17.5 20.5003 17.5C20.5003 17.5 20.5003 17.5 20.5003 17.5H20.5003C20.5003 17.5 20.5003 17.5 20.5003 17.5C20.5003 17.5 20.5003 17.5 20.5003 17.5H20.5003C20.5003 17.5 20.5003 17.5 20.5003 17.5C20.5003 17.5 20.5003 17.5 20.5003 17.5H20.5002C20.5002 17.5 20.5002 17.5 20.5002 17.5C20.5002 17.5 20.5002 17.5 20.5002 17.5C20.5002 17.5 20.5002 17.5 20.5002 17.5C20.5002 17.5 20.5002 17.5 20.5002 17.5H20.5002C20.5002 17.5 20.5002 17.5 20.5002 17.5C20.5002 17.5 20.5002 17.5 20.5002 17.5H20.5002C20.5002 17.5 20.5002 17.5 20.5002 17.5C20.5002 17.5 20.5002 17.5 20.5002 17.5H20.5002C20.5002 17.5 20.5002 17.5 20.5002 17.5C20.5002 17.5 20.5002 17.5 20.5002 17.5H20.5002C20.5002 17.5 20.5002 17.5 20.5002 17.5C20.5002 17.5 20.5002 17.5 20.5002 17.5H20.5002C20.5002 17.5 20.5002 17.5 20.5002 17.5C20.5002 17.5 20.5002 17.5 20.5002 17.5H20.5002C20.5002 17.5 20.5002 17.5 20.5002 17.5C20.5002 17.5 20.5002 17.5 20.5002 17.5H20.5002C20.5002 17.5 20.5002 17.5 20.5002 17.5C20.5002 17.5 20.5002 17.5 20.5002 17.5H20.5002C20.5002 17.5 20.5002 17.5 20.5002 17.5C20.5002 17.5 20.5002 17.5 20.5002 17.5H20.5002C20.5002 17.5 20.5002 17.5 20.5002 17.5C20.5002 17.5 20.5002 17.5 20.5002 17.5H20.5002C20.5002 17.5 20.5002 17.5 20.5002 17.5C20.5002 17.5 20.5002 17.5 20.5002 17.5H20.5002C20.5002 17.5 20.5002 17.5 20.5002 17.5C20.5002 17.5 20.5002 17.5 20.5002 17.5H20.5002C20.5002 17.5 20.5002 17.5 20.5002 17.5C20.5002 17.5 20.5002 17.5 20.5002 17.5H20.5002C20.5002 17.5 20.5002 17.5 20.5002 17.5C20.5002 17.5 20.5002 17.5 20.5002 17.5H20.5002C20.5002 17.5 20.5002 17.5 20.5002 17.5C20.5002 17.5 20.5002 17.5 20.5002 17.5H20.5002C20.5002 17.5 20.5002 17.5 20.5002 17.5C20.5002 17.5 20.5002 17.5 20.5002 17.5H20.5002C20.5002 17.5 20.5002 17.5 20.5002 17.5C20.5002 17.5 20.5002 17.5 20.5002 17.5H20.5001C20.5001 17.5 20.5001 17.5 20.5001 17.5H20.5001C20.5001 17.5 20.5001 17.5 20.5001 17.5C20.5001 17.5 20.5001 17.5 20.5001 17.5H20.5001C20.5001 17.5 20.5001 17.5 20.5001 17.5C20.5001 17.5 20.5001 17.5 20.5001 17.5H20.5001C20.5001 17.5 20.5001 17.5 20.5001 17.5C20.5001 17.5 20.5001 17.5 20.5001 17.5H20.5001C20.5001 17.5 20.5001 17.5 20.5001 17.5C20.5001 17.5 20.5001 17.5 20.5001 17.5H20.5001C20.5001 17.5 20.5001 17.5 20.5001 17.5C20.5001 17.5 20.5001 17.5 20.5001 17.5H20.5001C20.5001 17.5 20.5001 17.5 20.5001 17.5C20.5001 17.5 20.5001 17.5 20.5001 17.5H20.5001C20.5001 17.5 20.5001 17.5 20.5001 17.5C20.5001 17.5 20.5001 17.5 20.5001 17.5H20.5001C20.5001 17.5 20.5001 17.5 20.5001 17.5C20.5001 17.5 20.5001 17.5 20.5001 17.5H20.5001C20.5001 17.5 20.5001 17.5 20.5001 17.5C20.5001 17.5 20.5001 17.5 20.5001 17.5H20.5001C20.5001 17.5 20.5001 17.5 20.5001 17.5C20.5001 17.5 20.5001 17.5 20.5001 17.5H20.5001C20.5001 17.5 20.5001 17.5 20.5001 17.5C20.5001 17.5 20.5001 17.5 20.5001 17.5H20.5001C20.5001 17.5 20.5001 17.5 20.5001 17.5C20.5001 17.5 20.5001 17.5 20.5001 17.5H20.5001C20.5001 17.5 20.5001 17.5 20.5001 17.5C20.5001 17.5 20.5001 17.5 20.5001 17.5H20.5001C20.5001 17.5 20.5001 17.5 20.5001 17.5C20.5001 17.5 20.5001 17.5 20.5001 17.5C20.5001 17.5 20.5001 17.5 20.5001 17.5C20.5001 17.5 20.5001 17.5 20.5001 17.5H20.5001C20.5001 17.5 20.5001 17.5 20.5001 17.5C20.5001 17.5 20.5001 17.5 20.5001 17.5H20.5001C20.5001 17.5 20.5001 17.5 20.5001 17.5C20.5001 17.5 20.5001 17.5 20.5001 17.5H20.5C20.5 17.5 20.5 17.5 20.5 17.5C20.5 17.5 20.5 17.5 20.5 17.5H20.5C20.5 17.5 20.5 17.5 20.5 17.5C20.5 17.5 20.5 17.5 20.5 17.5H20.5C20.5 17.5 20.5 17.5 20.5 17.5C20.5 17.5 20.5 17.5 20.5 17.5H20.5C20.5 17.5 20.5 17.5 20.5 17.5C20.5 17.5 20.5 17.5 20.5 17.5H20.5C20.5 17.5 20.5 17.5 20.5 17.5C20.5 17.5 20.5 17.5 20.5 17.5H20.5C20.5 17.5 20.5 17.5 20.5 17.5C20.5 17.5 20.5 17.5 20.5 17.5H20.5C20.5 17.5 20.5 17.5 20.5 17.5C20.5 17.5 20.5 17.5 20.5 17.5H20.5C20.5 17.5 20.5 17.5 20.5 17.5C20.5 17.5 20.5 17.5 20.5 17.5H20.5C20.5 17.5 20.5 17.5 20.5 17.5C20.5 17.5 20.5 17.5 20.5 17.5V18.5C20.5 18.5 20.5 18.5 20.5 18.5C20.5 18.5 20.5 18.5 20.5 18.5H20.5C20.5 18.5 20.5 18.5 20.5 18.5C20.5 18.5 20.5 18.5 20.5 18.5H20.5C20.5 18.5 20.5 18.5 20.5 18.5C20.5 18.5 20.5 18.5 20.5 18.5H20.5C20.5 18.5 20.5 18.5 20.5 18.5C20.5 18.5 20.5 18.5 20.5 18.5H20.5C20.5 18.5 20.5 18.5 20.5 18.5C20.5 18.5 20.5 18.5 20.5 18.5H20.5C20.5 18.5 20.5 18.5 20.5 18.5C20.5 18.5 20.5 18.5 20.5 18.5H20.5C20.5 18.5 20.5 18.5 20.5 18.5C20.5 18.5 20.5 18.5 20.5 18.5H20.5C20.5 18.5 20.5 18.5 20.5 18.5C20.5 18.5 20.5 18.5 20.5 18.5H20.5C20.5 18.5 20.5 18.5 20.5 18.5C20.5 18.5 20.5 18.5 20.5 18.5H20.5001C20.5001 18.5 20.5001 18.5 20.5001 18.5C20.5001 18.5 20.5001 18.5 20.5001 18.5H20.5001C20.5001 18.5 20.5001 18.5 20.5001 18.5C20.5001 18.5 20.5001 18.5 20.5001 18.5H20.5001C20.5001 18.5 20.5001 18.5 20.5001 18.5C20.5001 18.5 20.5001 18.5 20.5001 18.5C20.5001 18.5 20.5001 18.5 20.5001 18.5C20.5001 18.5 20.5001 18.5 20.5001 18.5H20.5001C20.5001 18.5 20.5001 18.5 20.5001 18.5C20.5001 18.5 20.5001 18.5 20.5001 18.5H20.5001C20.5001 18.5 20.5001 18.5 20.5001 18.5C20.5001 18.5 20.5001 18.5 20.5001 18.5H20.5001C20.5001 18.5 20.5001 18.5 20.5001 18.5C20.5001 18.5 20.5001 18.5 20.5001 18.5H20.5001C20.5001 18.5 20.5001 18.5 20.5001 18.5C20.5001 18.5 20.5001 18.5 20.5001 18.5H20.5001C20.5001 18.5 20.5001 18.5 20.5001 18.5C20.5001 18.5 20.5001 18.5 20.5001 18.5H20.5001C20.5001 18.5 20.5001 18.5 20.5001 18.5C20.5001 18.5 20.5001 18.5 20.5001 18.5H20.5001C20.5001 18.5 20.5001 18.5 20.5001 18.5C20.5001 18.5 20.5001 18.5 20.5001 18.5H20.5001C20.5001 18.5 20.5001 18.5 20.5001 18.5C20.5001 18.5 20.5001 18.5 20.5001 18.5H20.5001C20.5001 18.5 20.5001 18.5 20.5001 18.5C20.5001 18.5 20.5001 18.5 20.5001 18.5H20.5001C20.5001 18.5 20.5001 18.5 20.5001 18.5C20.5001 18.5 20.5001 18.5 20.5001 18.5H20.5001C20.5001 18.5 20.5001 18.5 20.5001 18.5C20.5001 18.5 20.5001 18.5 20.5001 18.5H20.5001C20.5001 18.5 20.5001 18.5 20.5001 18.5C20.5001 18.5 20.5001 18.5 20.5001 18.5H20.5001C20.5001 18.5 20.5001 18.5 20.5001 18.5C20.5001 18.5 20.5001 18.5 20.5001 18.5H20.5001C20.5001 18.5 20.5001 18.5 20.5001 18.5H20.5002C20.5002 18.5 20.5002 18.5 20.5002 18.5C20.5002 18.5 20.5002 18.5 20.5002 18.5H20.5002C20.5002 18.5 20.5002 18.5 20.5002 18.5C20.5002 18.5 20.5002 18.5 20.5002 18.5H20.5002C20.5002 18.5 20.5002 18.5 20.5002 18.5C20.5002 18.5 20.5002 18.5 20.5002 18.5H20.5002C20.5002 18.5 20.5002 18.5 20.5002 18.5C20.5002 18.5 20.5002 18.5 20.5002 18.5H20.5002C20.5002 18.5 20.5002 18.5 20.5002 18.5C20.5002 18.5 20.5002 18.5 20.5002 18.5H20.5002C20.5002 18.5 20.5002 18.5 20.5002 18.5C20.5002 18.5 20.5002 18.5 20.5002 18.5H20.5002C20.5002 18.5 20.5002 18.5 20.5002 18.5C20.5002 18.5 20.5002 18.5 20.5002 18.5H20.5002C20.5002 18.5 20.5002 18.5 20.5002 18.5C20.5002 18.5 20.5002 18.5 20.5002 18.5H20.5002C20.5002 18.5 20.5002 18.5 20.5002 18.5C20.5002 18.5 20.5002 18.5 20.5002 18.5H20.5002C20.5002 18.5 20.5002 18.5 20.5002 18.5C20.5002 18.5 20.5002 18.5 20.5002 18.5H20.5002C20.5002 18.5 20.5002 18.5 20.5002 18.5C20.5002 18.5 20.5002 18.5 20.5002 18.5H20.5002C20.5002 18.5 20.5002 18.5 20.5002 18.5C20.5002 18.5 20.5002 18.5 20.5002 18.5H20.5002C20.5002 18.5 20.5002 18.5 20.5002 18.5C20.5002 18.5 20.5002 18.5 20.5002 18.5H20.5002C20.5002 18.5 20.5002 18.5 20.5002 18.5C20.5002 18.5 20.5002 18.5 20.5002 18.5H20.5002C20.5002 18.5 20.5002 18.5 20.5002 18.5C20.5002 18.5 20.5002 18.5 20.5002 18.5H20.5002C20.5002 18.5 20.5002 18.5 20.5002 18.5C20.5002 18.5 20.5002 18.5 20.5002 18.5H20.5002C20.5002 18.5 20.5002 18.5 20.5002 18.5C20.5002 18.5 20.5002 18.5 20.5002 18.5C20.5002 18.5 20.5002 18.5 20.5002 18.5C20.5002 18.5 20.5002 18.5 20.5002 18.5H20.5003C20.5003 18.5 20.5003 18.5 20.5003 18.5C20.5003 18.5 20.5003 18.5 20.5003 18.5H20.5003C20.5003 18.5 20.5003 18.5 20.5003 18.5C20.5003 18.5 20.5003 18.5 20.5003 18.5H20.5003C20.5003 18.5 20.5003 18.5 20.5003 18.5C20.5003 18.5 20.5003 18.5 20.5003 18.5H20.5003C20.5003 18.5 20.5003 18.5 20.5003 18.5C20.5003 18.5 20.5003 18.5 20.5003 18.5H20.5003C20.5003 18.5 20.5003 18.5 20.5003 18.5C20.5003 18.5 20.5003 18.5 20.5003 18.5H20.5003C20.5003 18.5 20.5003 18.5 20.5003 18.5C20.5003 18.5 20.5003 18.5 20.5003 18.5H20.5003C20.5003 18.5 20.5003 18.5 20.5003 18.5C20.5003 18.5 20.5003 18.5 20.5003 18.5H20.5003C20.5003 18.5 20.5003 18.5 20.5003 18.5C20.5003 18.5 20.5003 18.5 20.5003 18.5H20.5003C20.5003 18.5 20.5003 18.5 20.5003 18.5C20.5003 18.5 20.5003 18.5 20.5003 18.5H20.5003C20.5003 18.5 20.5003 18.5 20.5003 18.5C20.5003 18.5 20.5003 18.5 20.5003 18.5H20.5003C20.5003 18.5 20.5003 18.5 20.5003 18.5C20.5003 18.5 20.5003 18.5 20.5003 18.5H20.5003C20.5003 18.5 20.5003 18.5 20.5003 18.5C20.5003 18.5 20.5003 18.5 20.5003 18.5H20.5003C20.5003 18.5 20.5003 18.5 20.5003 18.5C20.5003 18.5 20.5003 18.5 20.5003 18.5H20.5003C20.5003 18.5 20.5003 18.5 20.5003 18.5C20.5003 18.5 20.5003 18.5 20.5003 18.5H20.5003C20.5003 18.5 20.5003 18.5 20.5003 18.5C20.5003 18.5 20.5003 18.5 20.5003 18.5H20.5003C20.5003 18.5 20.5003 18.5 20.5003 18.5C20.5003 18.5 20.5003 18.5 20.5003 18.5H20.5003C20.5003 18.5 20.5003 18.5 20.5003 18.5C20.5003 18.5 20.5003 18.5 20.5003 18.5H20.5003C20.5003 18.5 20.5003 18.5 20.5004 18.5C20.5004 18.5 20.5004 18.5 20.5004 18.5H20.5004C20.5004 18.5 20.5004 18.5 20.5004 18.5C20.5004 18.5 20.5004 18.5 20.5004 18.5H20.5004C20.5004 18.5 20.5004 18.5 20.5004 18.5C20.5004 18.5 20.5004 18.5 20.5004 18.5C20.5004 18.5 20.5004 18.5 20.5004 18.5C20.5004 18.5 20.5004 18.5 20.5004 18.5H20.5004C20.5004 18.5 20.5004 18.5 20.5004 18.5C20.5004 18.5 20.5004 18.5 20.5004 18.5H20.5004C20.5004 18.5 20.5004 18.5 20.5004 18.5C20.5004 18.5 20.5004 18.5 20.5004 18.5H20.5004C20.5004 18.5 20.5004 18.5 20.5004 18.5C20.5004 18.5 20.5004 18.5 20.5004 18.5H20.5004C20.5004 18.5 20.5004 18.5 20.5004 18.5C20.5004 18.5 20.5004 18.5 20.5004 18.5H20.5004C20.5004 18.5 20.5004 18.5 20.5004 18.5C20.5004 18.5 20.5004 18.5 20.5004 18.5H20.5004C20.5004 18.5 20.5004 18.5 20.5004 18.5C20.5004 18.5 20.5004 18.5 20.5004 18.5H20.5004C20.5004 18.5 20.5004 18.5 20.5004 18.5C20.5004 18.5 20.5004 18.5 20.5004 18.5H20.5004C20.5004 18.5 20.5004 18.5 20.5004 18.5C20.5004 18.5 20.5004 18.5 20.5004 18.5H20.5004C20.5004 18.5 20.5004 18.5 20.5004 18.5C20.5004 18.5 20.5004 18.5 20.5004 18.5H20.5004C20.5004 18.5 20.5004 18.5 20.5004 18.5C20.5004 18.5 20.5004 18.5 20.5004 18.5H20.5004C20.5004 18.5 20.5004 18.5 20.5004 18.5C20.5004 18.5 20.5004 18.5 20.5004 18.5H20.5004C20.5004 18.5 20.5004 18.5 20.5004 18.5C20.5004 18.5 20.5004 18.5 20.5004 18.5H20.5004C20.5004 18.5 20.5004 18.5 20.5004 18.5C20.5004 18.5 20.5004 18.5 20.5004 18.5H20.5004C20.5004 18.5 20.5004 18.5 20.5004 18.5C20.5004 18.5 20.5004 18.5 20.5004 18.5H20.5005C20.5005 18.5 20.5005 18.5 20.5005 18.5C20.5005 18.5 20.5005 18.5 20.5005 18.5H20.5005C20.5005 18.5 20.5005 18.5 20.5005 18.5C20.5005 18.5 20.5005 18.5 20.5005 18.5H20.5005C20.5005 18.5 20.5005 18.5 20.5005 18.5C20.5005 18.5 20.5005 18.5 20.5005 18.5H20.5005C20.5005 18.5 20.5005 18.5 20.5005 18.5C20.5005 18.5 20.5005 18.5 20.5005 18.5H20.5005C20.5005 18.5 20.5005 18.5 20.5005 18.5C20.5005 18.5 20.5005 18.5 20.5005 18.5H20.5005C20.5005 18.5 20.5005 18.5 20.5005 18.5C20.5005 18.5 20.5005 18.5 20.5005 18.5C20.5005 18.5 20.5005 18.5 20.5005 18.5C20.5005 18.5 20.5005 18.5 20.5005 18.5H20.5005C20.5005 18.5 20.5005 18.5 20.5005 18.5C20.5005 18.5 20.5005 18.5 20.5005 18.5H20.5005C20.5005 18.5 20.5005 18.5 20.5005 18.5C20.5005 18.5 20.5005 18.5 20.5005 18.5H20.5005C20.5005 18.5 20.5005 18.5 20.5005 18.5C20.5005 18.5 20.5005 18.5 20.5005 18.5H20.5005C20.5005 18.5 20.5005 18.5 20.5005 18.5C20.5005 18.5 20.5005 18.5 20.5005 18.5H20.5005C20.5005 18.5 20.5005 18.5 20.5005 18.5C20.5005 18.5 20.5005 18.5 20.5005 18.5H20.5005C20.5005 18.5 20.5005 18.5 20.5005 18.5C20.5005 18.5 20.5005 18.5 20.5005 18.5H20.5005C20.5005 18.5 20.5005 18.5 20.5005 18.5C20.5005 18.5 20.5005 18.5 20.5005 18.5H20.5005C20.5005 18.5 20.5005 18.5 20.5005 18.5C20.5005 18.5 20.5005 18.5 20.5005 18.5H20.5005C20.5005 18.5 20.5005 18.5 20.5005 18.5C20.5005 18.5 20.5005 18.5 20.5005 18.5H20.5005C20.5005 18.5 20.5005 18.5 20.5005 18.5C20.5005 18.5 20.5005 18.5 20.5005 18.5H20.5005C20.5005 18.5 20.5005 18.5 20.5005 18.5C20.5005 18.5 20.5005 18.5 20.5005 18.5H20.5006C20.5006 18.5 20.5006 18.5 20.5006 18.5C20.5006 18.5 20.5006 18.5 20.5006 18.5H20.5006C20.5006 18.5 20.5006 18.5 20.5006 18.5C20.5006 18.5 20.5006 18.5 20.5006 18.5H20.5006C20.5006 18.5 20.5006 18.5 20.5006 18.5C20.5006 18.5 20.5006 18.5 20.5006 18.5H20.5006C20.5006 18.5 20.5006 18.5 20.5006 18.5C20.5006 18.5 20.5006 18.5 20.5006 18.5H20.5006C20.5006 18.5 20.5006 18.5 20.5006 18.5C20.5006 18.5 20.5006 18.5 20.5006 18.5H20.5006C20.5006 18.5 20.5006 18.5 20.5006 18.5H20.5006C20.5006 18.5 20.5006 18.5 20.5006 18.5C20.5006 18.5 20.5006 18.5 20.5006 18.5H20.5006C20.5006 18.5 20.5006 18.5 20.5006 18.5C20.5006 18.5 20.5006 18.5 20.5006 18.5H20.5006C20.5006 18.5 20.5006 18.5 20.5006 18.5C20.5006 18.5 20.5006 18.5 20.5006 18.5H20.5006C20.5006 18.5 20.5006 18.5 20.5006 18.5C20.5006 18.5 20.5006 18.5 20.5006 18.5H20.5006C20.5006 18.5 20.5006 18.5 20.5006 18.5C20.5006 18.5 20.5006 18.5 20.5006 18.5H20.5006C20.5006 18.5 20.5006 18.5 20.5006 18.5C20.5006 18.5 20.5006 18.5 20.5006 18.5H20.5006C20.5006 18.5 20.5006 18.5 20.5006 18.5C20.5006 18.5 20.5006 18.5 20.5006 18.5H20.5006C20.5006 18.5 20.5006 18.5 20.5006 18.5C20.5006 18.5 20.5006 18.5 20.5006 18.5H20.5006C20.5006 18.5 20.5006 18.5 20.5006 18.5C20.5006 18.5 20.5006 18.5 20.5006 18.5H20.5006C20.5006 18.5 20.5006 18.5 20.5006 18.5C20.5006 18.5 20.5006 18.5 20.5006 18.5H20.5006C20.5006 18.5 20.5006 18.5 20.5006 18.5C20.5006 18.5 20.5006 18.5 20.5006 18.5H20.5006C20.5006 18.5 20.5006 18.5 20.5006 18.5C20.5007 18.5 20.5007 18.5 20.5007 18.5H20.5007C20.5007 18.5 20.5007 18.5 20.5007 18.5C20.5007 18.5 20.5007 18.5 20.5007 18.5H20.5007C20.5007 18.5 20.5007 18.5 20.5007 18.5C20.5007 18.5 20.5007 18.5 20.5007 18.5C20.5007 18.5 20.5007 18.5 20.5007 18.5C20.5007 18.5 20.5007 18.5 20.5007 18.5H20.5007C20.5007 18.5 20.5007 18.5 20.5007 18.5C20.5007 18.5 20.5007 18.5 20.5007 18.5H20.5007C20.5007 18.5 20.5007 18.5 20.5007 18.5C20.5007 18.5 20.5007 18.5 20.5007 18.5H20.5007C20.5007 18.5 20.5007 18.5 20.5007 18.5C20.5007 18.5 20.5007 18.5 20.5007 18.5H20.5007C20.5007 18.5 20.5007 18.5 20.5007 18.5C20.5007 18.5 20.5007 18.5 20.5007 18.5H20.5007C20.5007 18.5 20.5007 18.5 20.5007 18.5C20.5007 18.5 20.5007 18.5 20.5007 18.5H20.5007C20.5007 18.5 20.5007 18.5 20.5007 18.5C20.5007 18.5 20.5007 18.5 20.5007 18.5H20.5007C20.5007 18.5 20.5007 18.5 20.5007 18.5C20.5007 18.5 20.5007 18.5 20.5007 18.5H20.5007C20.5007 18.5 20.5007 18.5 20.5007 18.5C20.5007 18.5 20.5007 18.5 20.5007 18.5H20.5007C20.5007 18.5 20.5007 18.5 20.5007 18.5C20.5007 18.5 20.5007 18.5 20.5007 18.5H20.5007C20.5007 18.5 20.5007 18.5 20.5007 18.5C20.5007 18.5 20.5007 18.5 20.5007 18.5H20.5007C20.5007 18.5 20.5007 18.5 20.5007 18.5C20.5007 18.5 20.5007 18.5 20.5007 18.5V17.5ZM20.5 17.5C16.0817 17.5 12.5 13.9183 12.5 9.5H11.5C11.5 14.4706 15.5294 18.5 20.5 18.5V17.5ZM12.5 9.5C12.5 6.77399 13.863 4.36623 15.9469 2.9211L15.3771 2.09935C13.0353 3.72331 11.5 6.43232 11.5 9.5H12.5ZM12.5 2.5C13.5507 2.5 14.5605 2.67037 15.504 2.98461L15.82 2.03584C14.7759 1.6881 13.6594 1.5 12.5 1.5V2.5ZM3 12C3 6.75329 7.25329 2.5 12.5 2.5V1.5C6.70101 1.5 2 6.20101 2 12H3ZM12.5 21.5C7.25329 21.5 3 17.2467 3 12H2C2 17.799 6.70101 22.5 12.5 22.5V21.5ZM20.1009 17.6997C18.3669 20.0083 15.6077 21.5 12.5 21.5V22.5C15.9355 22.5 18.9857 20.8495 20.9005 18.3003L20.1009 17.6997Z" fill="black"/>
</svg>
