<svg width="24" height="24" viewBox="0 0 24 24" fill="none" xmlns="http://www.w3.org/2000/svg">
<path d="M13.5 3H14C14 2.72386 13.7761 2.5 13.5 2.5V3ZM10.5 3V2.5C10.2239 2.5 10 2.72386 10 3H10.5ZM13.5 5.16109H13C13 5.39614 13.1637 5.59945 13.3933 5.64958L13.5 5.16109ZM15.7747 6.10395L15.5047 6.52479C15.7026 6.6517 15.9621 6.6237 16.1283 6.4575L15.7747 6.10395ZM17.3033 4.57538L17.6569 4.22183C17.4616 4.02656 17.145 4.02656 16.9497 4.22183L17.3033 4.57538ZM19.4246 6.6967L19.7782 7.05025C19.8719 6.95648 19.9246 6.82931 19.9246 6.6967C19.9246 6.56409 19.8719 6.43691 19.7782 6.34315L19.4246 6.6967ZM17.8961 8.22527L17.5425 7.87171C17.3763 8.03791 17.3483 8.29743 17.4752 8.49525L17.8961 8.22527ZM18.8389 10.5L18.3504 10.6066C18.4006 10.8363 18.6039 11 18.8389 11V10.5ZM21 10.5H21.5C21.5 10.2239 21.2761 10 21 10V10.5ZM21 13.5V14C21.2761 14 21.5 13.7761 21.5 13.5H21ZM18.8389 13.5V13C18.6039 13 18.4006 13.1637 18.3504 13.3933L18.8389 13.5ZM17.8961 15.7747L17.4752 15.5047C17.3483 15.7026 17.3763 15.9621 17.5425 16.1283L17.8961 15.7747ZM19.4246 17.3033L19.7782 17.6569C19.9734 17.4616 19.9734 17.145 19.7782 16.9497L19.4246 17.3033ZM17.3033 19.4246L16.9497 19.7782C17.145 19.9734 17.4616 19.9734 17.6569 19.7782L17.3033 19.4246ZM15.7747 17.8961L16.1283 17.5425C15.9621 17.3763 15.7026 17.3483 15.5047 17.4752L15.7747 17.8961ZM13.5 18.8389L13.3933 18.3504C13.1637 18.4006 13 18.6039 13 18.8389H13.5ZM13.5 21V21.5C13.7761 21.5 14 21.2761 14 21H13.5ZM10.5 21H10C10 21.2761 10.2239 21.5 10.5 21.5V21ZM10.5 18.8389H11C11 18.6039 10.8363 18.4006 10.6066 18.3504L10.5 18.8389ZM8.22527 17.8961L8.49525 17.4752C8.29743 17.3483 8.03791 17.3763 7.87171 17.5425L8.22527 17.8961ZM6.6967 19.4246L6.34315 19.7782C6.43691 19.8719 6.56409 19.9246 6.6967 19.9246C6.82931 19.9246 6.95648 19.8719 7.05025 19.7782L6.6967 19.4246ZM4.57538 17.3033L4.22183 16.9497C4.02656 17.145 4.02656 17.4616 4.22183 17.6569L4.57538 17.3033ZM6.10395 15.7747L6.4575 16.1283C6.6237 15.9621 6.6517 15.7026 6.52479 15.5047L6.10395 15.7747ZM5.16109 13.5L5.64958 13.3933C5.59945 13.1637 5.39614 13 5.16109 13V13.5ZM3 13.5H2.5C2.5 13.7761 2.72386 14 3 14V13.5ZM3 10.5V10C2.72386 10 2.5 10.2239 2.5 10.5H3ZM5.16109 10.5V11C5.39614 11 5.59945 10.8363 5.64958 10.6066L5.16109 10.5ZM6.10395 8.22527L6.52479 8.49525C6.6517 8.29743 6.6237 8.03791 6.4575 7.87171L6.10395 8.22527ZM4.57538 6.6967L4.22183 6.34315C4.02656 6.53841 4.02656 6.85499 4.22183 7.05025L4.57538 6.6967ZM6.6967 4.57538L7.05025 4.22183C6.85499 4.02656 6.53841 4.02656 6.34315 4.22183L6.6967 4.57538ZM8.22527 6.10395L7.87171 6.4575C8.03791 6.6237 8.29743 6.6517 8.49525 6.52479L8.22527 6.10395ZM10.5 5.16109L10.6066 5.64958C10.8363 5.59945 11 5.39614 11 5.16109H10.5ZM13.5 2.5H10.5V3.5H13.5V2.5ZM14 5.16109V3H13V5.16109H14ZM16.0447 5.68311C15.31 5.21175 14.4873 4.86486 13.6067 4.6726L13.3933 5.64958C14.1556 5.816 14.868 6.11627 15.5047 6.52479L16.0447 5.68311ZM16.1283 6.4575L17.6569 4.92893L16.9497 4.22183L15.4212 5.75039L16.1283 6.4575ZM16.9497 4.92893L19.0711 7.05025L19.7782 6.34315L17.6569 4.22183L16.9497 4.92893ZM19.0711 6.34315L17.5425 7.87171L18.2496 8.57882L19.7782 7.05025L19.0711 6.34315ZM19.3274 10.3934C19.1351 9.5127 18.7883 8.69 18.3169 7.95528L17.4752 8.49525C17.8837 9.13203 18.184 9.84441 18.3504 10.6066L19.3274 10.3934ZM21 10H18.8389V11H21V10ZM21.5 13.5V10.5H20.5V13.5H21.5ZM18.8389 14H21V13H18.8389V14ZM18.3169 16.0447C18.7883 15.31 19.1351 14.4873 19.3274 13.6067L18.3504 13.3933C18.184 14.1556 17.8837 14.868 17.4752 15.5047L18.3169 16.0447ZM19.7782 16.9497L18.2496 15.4212L17.5425 16.1283L19.0711 17.6569L19.7782 16.9497ZM17.6569 19.7782L19.7782 17.6569L19.0711 16.9497L16.9497 19.0711L17.6569 19.7782ZM15.4212 18.2496L16.9497 19.7782L17.6569 19.0711L16.1283 17.5425L15.4212 18.2496ZM13.6067 19.3274C14.4873 19.1351 15.31 18.7883 16.0447 18.3169L15.5047 17.4752C14.868 17.8837 14.1556 18.184 13.3933 18.3504L13.6067 19.3274ZM14 21V18.8389H13V21H14ZM10.5 21.5H13.5V20.5H10.5V21.5ZM10 18.8389V21H11V18.8389H10ZM7.95528 18.3169C8.69 18.7883 9.5127 19.1351 10.3934 19.3274L10.6066 18.3504C9.84441 18.184 9.13203 17.8837 8.49525 17.4752L7.95528 18.3169ZM7.05025 19.7782L8.57882 18.2496L7.87171 17.5425L6.34315 19.0711L7.05025 19.7782ZM4.22183 17.6569L6.34315 19.7782L7.05025 19.0711L4.92893 16.9497L4.22183 17.6569ZM5.75039 15.4212L4.22183 16.9497L4.92893 17.6569L6.4575 16.1283L5.75039 15.4212ZM4.6726 13.6067C4.86486 14.4873 5.21175 15.31 5.68311 16.0447L6.52479 15.5047C6.11627 14.868 5.816 14.1556 5.64958 13.3933L4.6726 13.6067ZM3 14H5.16109V13H3V14ZM2.5 10.5V13.5H3.5V10.5H2.5ZM5.16109 10H3V11H5.16109V10ZM5.68311 7.95528C5.21175 8.69 4.86486 9.5127 4.6726 10.3934L5.64958 10.6066C5.816 9.84441 6.11627 9.13203 6.52479 8.49525L5.68311 7.95528ZM4.22183 7.05025L5.75039 8.57882L6.4575 7.87171L4.92893 6.34315L4.22183 7.05025ZM6.34315 4.22183L4.22183 6.34315L4.92893 7.05025L7.05025 4.92893L6.34315 4.22183ZM8.57882 5.75039L7.05025 4.22183L6.34315 4.92893L7.87171 6.4575L8.57882 5.75039ZM10.3934 4.6726C9.5127 4.86486 8.69 5.21175 7.95528 5.68311L8.49525 6.52479C9.13203 6.11627 9.84441 5.816 10.6066 5.64958L10.3934 4.6726ZM10 3V5.16109H11V3H10Z" fill="black"/>
<circle cx="12" cy="12" r="3" stroke="black"/>
</svg>
